<svg xmlns="http://www.w3.org/2000/svg" xmlns:xlink="http://www.w3.org/1999/xlink" width="1920" zoomAndPan="magnify" viewBox="0 0 1440 809.999993" height="1080" preserveAspectRatio="xMidYMid meet" version="1.0"><defs><clipPath id="5d9c5fc492"><path d="M 281 721 L 326 721 L 326 810 L 281 810 Z M 281 721 " clip-rule="nonzero"/></clipPath><clipPath id="9d95a719f4"><path d="M 281.101562 725.269531 L 305.800781 721.125 L 325.011719 835.5625 L 300.308594 839.707031 Z M 281.101562 725.269531 " clip-rule="nonzero"/></clipPath><clipPath id="e68412c8c2"><path d="M 281.101562 725.269531 L 305.800781 721.125 L 325.003906 835.527344 L 300.304688 839.671875 Z M 281.101562 725.269531 " clip-rule="nonzero"/></clipPath><clipPath id="529c829ccb"><path d="M 260 721 L 305 721 L 305 810 L 260 810 Z M 260 721 " clip-rule="nonzero"/></clipPath><clipPath id="ff3f0d2517"><path d="M 260.449219 725.753906 L 285.152344 721.609375 L 304.359375 836.046875 L 279.660156 840.191406 Z M 260.449219 725.753906 " clip-rule="nonzero"/></clipPath><clipPath id="cbab55ebcd"><path d="M 260.449219 725.753906 L 285.152344 721.609375 L 304.355469 836.011719 L 279.652344 840.15625 Z M 260.449219 725.753906 " clip-rule="nonzero"/></clipPath><clipPath id="5274899c85"><path d="M 1160 718 L 1202 718 L 1202 810 L 1160 810 Z M 1160 718 " clip-rule="nonzero"/></clipPath><clipPath id="e56763324c"><path d="M 1176.367188 718.828125 L 1201.191406 722.164062 L 1185.738281 837.167969 L 1160.914062 833.832031 Z M 1176.367188 718.828125 " clip-rule="nonzero"/></clipPath><clipPath id="c10f8c46a4"><path d="M 1176.367188 718.828125 L 1201.191406 722.164062 L 1185.742188 837.132812 L 1160.917969 833.796875 Z M 1176.367188 718.828125 " clip-rule="nonzero"/></clipPath><clipPath id="112fedc796"><path d="M 1183 718 L 1222 718 L 1222 810 L 1183 810 Z M 1183 718 " clip-rule="nonzero"/></clipPath><clipPath id="bc7c57f0bb"><path d="M 1197.105469 718.339844 L 1221.964844 721.386719 L 1207.859375 836.5625 L 1183 833.519531 Z M 1197.105469 718.339844 " clip-rule="nonzero"/></clipPath><clipPath id="c2a915f538"><path d="M 1197.105469 718.339844 L 1221.964844 721.386719 L 1207.863281 836.53125 L 1183.003906 833.484375 Z M 1197.105469 718.339844 " clip-rule="nonzero"/></clipPath><clipPath id="f7d8a3a386"><path d="M 131 494 L 1362 494 L 1362 725 L 131 725 Z M 131 494 " clip-rule="nonzero"/></clipPath><clipPath id="fcf81eb5e4"><path d="M 130.152344 500.058594 L 1361 494.460938 L 1362.019531 718.730469 L 131.171875 724.328125 Z M 130.152344 500.058594 " clip-rule="nonzero"/></clipPath><clipPath id="1e21806d32"><path d="M 190.898438 499.78125 L 1300.074219 494.738281 L 1361.84375 718.730469 L 131.171875 724.328125 Z M 190.898438 499.78125 " clip-rule="nonzero"/></clipPath><clipPath id="e177dddb9a"><path d="M 131 717 L 1361 717 L 1361 744 L 131 744 Z M 131 717 " clip-rule="nonzero"/></clipPath><clipPath id="78ec99f632"><path d="M 131.550781 720.878906 L 1360.898438 717.511719 L 1360.960938 739.847656 L 131.613281 743.214844 Z M 131.550781 720.878906 " clip-rule="nonzero"/></clipPath><clipPath id="9b3ae44cc8"><path d="M 131.550781 720.878906 L 1360.898438 717.511719 L 1360.957031 739.847656 L 131.613281 743.214844 Z M 131.550781 720.878906 " clip-rule="nonzero"/></clipPath><clipPath id="7af079e245"><path d="M 0 307 L 296 307 L 296 748 L 0 748 Z M 0 307 " clip-rule="nonzero"/></clipPath><clipPath id="d57ee924a8"><path d="M 83.085938 307.28125 L 295.683594 424.980469 L 116.835938 748.023438 L -95.757812 630.324219 Z M 83.085938 307.28125 " clip-rule="nonzero"/></clipPath><clipPath id="da9553cbc8"><path d="M 83.085938 307.28125 L 295.683594 424.980469 L 116.859375 747.980469 L -95.734375 630.285156 Z M 83.085938 307.28125 " clip-rule="nonzero"/></clipPath><clipPath id="6163dd7a34"><path d="M 1182 297 L 1440 297 L 1440 740 L 1182 740 Z M 1182 297 " clip-rule="nonzero"/></clipPath><clipPath id="73e6dff459"><path d="M 1182.617188 423.082031 L 1390.925781 297.957031 L 1581.058594 614.488281 L 1372.753906 739.613281 Z M 1182.617188 423.082031 " clip-rule="nonzero"/></clipPath><clipPath id="c73718130f"><path d="M 1182.617188 423.082031 L 1390.925781 297.957031 L 1581.035156 614.445312 L 1372.726562 739.574219 Z M 1182.617188 423.082031 " clip-rule="nonzero"/></clipPath><clipPath id="dcb5538e2c"><path d="M 704 501 L 742 501 L 742 525 L 704 525 Z M 704 501 " clip-rule="nonzero"/></clipPath><clipPath id="2e1c4ace6d"><path d="M 704.84375 502.28125 L 741.65625 501.421875 L 742.179688 523.804688 L 705.367188 524.664062 Z M 704.84375 502.28125 " clip-rule="nonzero"/></clipPath><clipPath id="b31252f576"><path d="M 717.625 523.539062 C 719.523438 524 721.675781 524.28125 723.78125 524.234375 C 725.886719 524.183594 727.90625 523.851562 729.761719 523.304688 C 729.800781 523.285156 729.839844 523.285156 729.878906 523.269531 C 736.84375 521.082031 741.878906 515.621094 741.839844 509.671875 L 741.648438 501.421875 L 704.84375 502.28125 L 705.039062 510.527344 C 705.277344 516.507812 710.488281 521.730469 717.625 523.539062 Z M 717.625 523.539062 " clip-rule="nonzero"/></clipPath><clipPath id="63cf4f44d7"><path d="M 704.84375 502.28125 L 741.648438 501.421875 L 742.171875 523.804688 L 705.367188 524.664062 Z M 704.84375 502.28125 " clip-rule="nonzero"/></clipPath><radialGradient gradientTransform="matrix(0.999726, -0.023392, 0.023392, 0.999726, 704.84521, 502.281266)" gradientUnits="userSpaceOnUse" r="21.543151" cx="18.40627" id="eba9348d23" cy="11.194488" fx="18.40627" fy="11.194488"><stop stop-opacity="1" stop-color="rgb(0.10376%, 0.102234%, 0.102234%)" offset="0"/><stop stop-opacity="1" stop-color="rgb(0.363159%, 0.358582%, 0.358582%)" offset="0.0078125"/><stop stop-opacity="1" stop-color="rgb(0.675964%, 0.666809%, 0.666809%)" offset="0.0195312"/><stop stop-opacity="1" stop-color="rgb(0.98877%, 0.975037%, 0.975037%)" offset="0.03125"/><stop stop-opacity="1" stop-color="rgb(1.301575%, 1.283264%, 1.283264%)" offset="0.0429688"/><stop stop-opacity="1" stop-color="rgb(1.61438%, 1.591492%, 1.591492%)" offset="0.0546875"/><stop stop-opacity="1" stop-color="rgb(1.928711%, 1.899719%, 1.899719%)" offset="0.0664062"/><stop stop-opacity="1" stop-color="rgb(2.241516%, 2.207947%, 2.207947%)" offset="0.078125"/><stop stop-opacity="1" stop-color="rgb(2.554321%, 2.516174%, 2.516174%)" offset="0.0898438"/><stop stop-opacity="1" stop-color="rgb(2.867126%, 2.824402%, 2.824402%)" offset="0.101562"/><stop stop-opacity="1" stop-color="rgb(3.179932%, 3.132629%, 3.132629%)" offset="0.113281"/><stop stop-opacity="1" stop-color="rgb(3.492737%, 3.440857%, 3.440857%)" offset="0.125"/><stop stop-opacity="1" stop-color="rgb(3.805542%, 3.749084%, 3.749084%)" offset="0.136719"/><stop stop-opacity="1" stop-color="rgb(4.118347%, 4.057312%, 4.057312%)" offset="0.148438"/><stop stop-opacity="1" stop-color="rgb(4.431152%, 4.36554%, 4.36554%)" offset="0.160156"/><stop stop-opacity="1" stop-color="rgb(4.743958%, 4.673767%, 4.673767%)" offset="0.171875"/><stop stop-opacity="1" stop-color="rgb(5.056763%, 4.981995%, 4.981995%)" offset="0.183594"/><stop stop-opacity="1" stop-color="rgb(5.369568%, 5.290222%, 5.290222%)" offset="0.195312"/><stop stop-opacity="1" stop-color="rgb(5.682373%, 5.59845%, 5.59845%)" offset="0.207031"/><stop stop-opacity="1" stop-color="rgb(5.995178%, 5.906677%, 5.906677%)" offset="0.21875"/><stop stop-opacity="1" stop-color="rgb(6.307983%, 6.214905%, 6.214905%)" offset="0.230469"/><stop stop-opacity="1" stop-color="rgb(6.620789%, 6.523132%, 6.523132%)" offset="0.242188"/><stop stop-opacity="1" stop-color="rgb(6.881714%, 6.77948%, 6.77948%)" offset="0.253906"/><stop stop-opacity="1" stop-color="rgb(7.090759%, 6.983948%, 6.983948%)" offset="0.261719"/><stop stop-opacity="1" stop-color="rgb(7.299805%, 7.189941%, 7.189941%)" offset="0.269531"/><stop stop-opacity="1" stop-color="rgb(7.507324%, 7.395935%, 7.395935%)" offset="0.277344"/><stop stop-opacity="1" stop-color="rgb(7.71637%, 7.600403%, 7.600403%)" offset="0.285156"/><stop stop-opacity="1" stop-color="rgb(7.925415%, 7.806396%, 7.806396%)" offset="0.292969"/><stop stop-opacity="1" stop-color="rgb(8.13446%, 8.01239%, 8.01239%)" offset="0.300781"/><stop stop-opacity="1" stop-color="rgb(8.34198%, 8.216858%, 8.216858%)" offset="0.308594"/><stop stop-opacity="1" stop-color="rgb(8.551025%, 8.422852%, 8.422852%)" offset="0.316406"/><stop stop-opacity="1" stop-color="rgb(8.760071%, 8.628845%, 8.628845%)" offset="0.324219"/><stop stop-opacity="1" stop-color="rgb(8.96759%, 8.833313%, 8.833313%)" offset="0.332031"/><stop stop-opacity="1" stop-color="rgb(9.176636%, 9.039307%, 9.039307%)" offset="0.339844"/><stop stop-opacity="1" stop-color="rgb(9.385681%, 9.2453%, 9.2453%)" offset="0.347656"/><stop stop-opacity="1" stop-color="rgb(9.594727%, 9.449768%, 9.449768%)" offset="0.355469"/><stop stop-opacity="1" stop-color="rgb(9.802246%, 9.655762%, 9.655762%)" offset="0.363281"/><stop stop-opacity="1" stop-color="rgb(10.011292%, 9.861755%, 9.861755%)" offset="0.371094"/><stop stop-opacity="1" stop-color="rgb(10.220337%, 10.066223%, 10.066223%)" offset="0.378906"/><stop stop-opacity="1" stop-color="rgb(10.427856%, 10.272217%, 10.272217%)" offset="0.386719"/><stop stop-opacity="1" stop-color="rgb(10.636902%, 10.47821%, 10.47821%)" offset="0.394531"/><stop stop-opacity="1" stop-color="rgb(10.845947%, 10.682678%, 10.682678%)" offset="0.402344"/><stop stop-opacity="1" stop-color="rgb(11.053467%, 10.888672%, 10.888672%)" offset="0.410156"/><stop stop-opacity="1" stop-color="rgb(11.262512%, 11.094666%, 11.094666%)" offset="0.417969"/><stop stop-opacity="1" stop-color="rgb(11.471558%, 11.299133%, 11.299133%)" offset="0.425781"/><stop stop-opacity="1" stop-color="rgb(11.680603%, 11.505127%, 11.505127%)" offset="0.433594"/><stop stop-opacity="1" stop-color="rgb(11.888123%, 11.711121%, 11.711121%)" offset="0.441406"/><stop stop-opacity="1" stop-color="rgb(12.097168%, 11.915588%, 11.915588%)" offset="0.449219"/><stop stop-opacity="1" stop-color="rgb(12.306213%, 12.121582%, 12.121582%)" offset="0.457031"/><stop stop-opacity="1" stop-color="rgb(12.513733%, 12.327576%, 12.327576%)" offset="0.464844"/><stop stop-opacity="1" stop-color="rgb(12.722778%, 12.532043%, 12.532043%)" offset="0.472656"/><stop stop-opacity="1" stop-color="rgb(12.931824%, 12.738037%, 12.738037%)" offset="0.480469"/><stop stop-opacity="1" stop-color="rgb(13.140869%, 12.944031%, 12.944031%)" offset="0.488281"/><stop stop-opacity="1" stop-color="rgb(13.348389%, 13.148499%, 13.148499%)" offset="0.496094"/><stop stop-opacity="1" stop-color="rgb(13.609314%, 13.406372%, 13.406372%)" offset="0.503906"/><stop stop-opacity="1" stop-color="rgb(13.922119%, 13.7146%, 13.7146%)" offset="0.515625"/><stop stop-opacity="1" stop-color="rgb(14.234924%, 14.022827%, 14.022827%)" offset="0.527344"/><stop stop-opacity="1" stop-color="rgb(14.547729%, 14.331055%, 14.331055%)" offset="0.539062"/><stop stop-opacity="1" stop-color="rgb(14.860535%, 14.639282%, 14.639282%)" offset="0.550781"/><stop stop-opacity="1" stop-color="rgb(15.17334%, 14.94751%, 14.94751%)" offset="0.5625"/><stop stop-opacity="1" stop-color="rgb(15.486145%, 15.255737%, 15.255737%)" offset="0.574219"/><stop stop-opacity="1" stop-color="rgb(15.79895%, 15.563965%, 15.563965%)" offset="0.585938"/><stop stop-opacity="1" stop-color="rgb(16.111755%, 15.872192%, 15.872192%)" offset="0.597656"/><stop stop-opacity="1" stop-color="rgb(16.424561%, 16.18042%, 16.18042%)" offset="0.609375"/><stop stop-opacity="1" stop-color="rgb(16.738892%, 16.488647%, 16.488647%)" offset="0.621094"/><stop stop-opacity="1" stop-color="rgb(16.999817%, 16.744995%, 16.744995%)" offset="0.632812"/><stop stop-opacity="1" stop-color="rgb(17.207336%, 16.949463%, 16.949463%)" offset="0.640625"/><stop stop-opacity="1" stop-color="rgb(17.416382%, 17.155457%, 17.155457%)" offset="0.648438"/><stop stop-opacity="1" stop-color="rgb(17.625427%, 17.36145%, 17.36145%)" offset="0.65625"/><stop stop-opacity="1" stop-color="rgb(17.832947%, 17.565918%, 17.565918%)" offset="0.664062"/><stop stop-opacity="1" stop-color="rgb(18.041992%, 17.771912%, 17.771912%)" offset="0.671875"/><stop stop-opacity="1" stop-color="rgb(18.251038%, 17.977905%, 17.977905%)" offset="0.679688"/><stop stop-opacity="1" stop-color="rgb(18.458557%, 18.182373%, 18.182373%)" offset="0.6875"/><stop stop-opacity="1" stop-color="rgb(18.667603%, 18.388367%, 18.388367%)" offset="0.695312"/><stop stop-opacity="1" stop-color="rgb(18.876648%, 18.59436%, 18.59436%)" offset="0.703125"/><stop stop-opacity="1" stop-color="rgb(19.085693%, 18.798828%, 18.798828%)" offset="0.710938"/><stop stop-opacity="1" stop-color="rgb(19.293213%, 19.004822%, 19.004822%)" offset="0.71875"/><stop stop-opacity="1" stop-color="rgb(19.502258%, 19.210815%, 19.210815%)" offset="0.726562"/><stop stop-opacity="1" stop-color="rgb(19.711304%, 19.415283%, 19.415283%)" offset="0.734375"/><stop stop-opacity="1" stop-color="rgb(19.918823%, 19.621277%, 19.621277%)" offset="0.742188"/><stop stop-opacity="1" stop-color="rgb(20.127869%, 19.825745%, 19.825745%)" offset="0.75"/><stop stop-opacity="1" stop-color="rgb(20.388794%, 20.083618%, 20.083618%)" offset="0.757812"/><stop stop-opacity="1" stop-color="rgb(20.701599%, 20.391846%, 20.391846%)" offset="0.769531"/><stop stop-opacity="1" stop-color="rgb(21.014404%, 20.700073%, 20.700073%)" offset="0.78125"/><stop stop-opacity="1" stop-color="rgb(21.327209%, 21.008301%, 21.008301%)" offset="0.792969"/><stop stop-opacity="1" stop-color="rgb(21.640015%, 21.316528%, 21.316528%)" offset="0.804688"/><stop stop-opacity="1" stop-color="rgb(21.90094%, 21.572876%, 21.572876%)" offset="0.816406"/><stop stop-opacity="1" stop-color="rgb(22.109985%, 21.77887%, 21.77887%)" offset="0.824219"/><stop stop-opacity="1" stop-color="rgb(22.317505%, 21.983337%, 21.983337%)" offset="0.832031"/><stop stop-opacity="1" stop-color="rgb(22.52655%, 22.189331%, 22.189331%)" offset="0.839844"/><stop stop-opacity="1" stop-color="rgb(22.735596%, 22.395325%, 22.395325%)" offset="0.847656"/><stop stop-opacity="1" stop-color="rgb(22.944641%, 22.599792%, 22.599792%)" offset="0.855469"/><stop stop-opacity="1" stop-color="rgb(23.152161%, 22.805786%, 22.805786%)" offset="0.863281"/><stop stop-opacity="1" stop-color="rgb(23.361206%, 23.01178%, 23.01178%)" offset="0.871094"/><stop stop-opacity="1" stop-color="rgb(23.622131%, 23.268127%, 23.268127%)" offset="0.878906"/><stop stop-opacity="1" stop-color="rgb(23.934937%, 23.576355%, 23.576355%)" offset="0.890625"/><stop stop-opacity="1" stop-color="rgb(24.247742%, 23.884583%, 23.884583%)" offset="0.902344"/><stop stop-opacity="1" stop-color="rgb(24.508667%, 24.14093%, 24.14093%)" offset="0.914062"/><stop stop-opacity="1" stop-color="rgb(24.717712%, 24.346924%, 24.346924%)" offset="0.921875"/><stop stop-opacity="1" stop-color="rgb(24.925232%, 24.552917%, 24.552917%)" offset="0.929688"/><stop stop-opacity="1" stop-color="rgb(25.134277%, 24.757385%, 24.757385%)" offset="0.9375"/><stop stop-opacity="1" stop-color="rgb(25.395203%, 25.015259%, 25.015259%)" offset="0.945312"/><stop stop-opacity="1" stop-color="rgb(25.656128%, 25.271606%, 25.271606%)" offset="0.957031"/><stop stop-opacity="1" stop-color="rgb(25.863647%, 25.4776%, 25.4776%)" offset="0.964844"/><stop stop-opacity="1" stop-color="rgb(26.124573%, 25.733948%, 25.733948%)" offset="0.972656"/><stop stop-opacity="1" stop-color="rgb(26.385498%, 25.990295%, 25.990295%)" offset="0.984375"/><stop stop-opacity="1" stop-color="rgb(26.594543%, 26.196289%, 26.196289%)" offset="0.992188"/><stop stop-opacity="1" stop-color="rgb(26.699829%, 26.298523%, 26.298523%)" offset="1"/></radialGradient><clipPath id="f114db4c83"><path d="M 708 266 L 734 266 L 734 514 L 708 514 Z M 708 266 " clip-rule="nonzero"/></clipPath><clipPath id="c78bb0eb8b"><path d="M 708.726562 267.164062 L 727.601562 266.722656 L 733.363281 512.859375 L 714.484375 513.300781 Z M 708.726562 267.164062 " clip-rule="nonzero"/></clipPath><clipPath id="2657c9cf86"><path d="M 708.726562 267.164062 L 727.601562 266.722656 L 733.363281 512.8125 L 714.484375 513.253906 Z M 708.726562 267.164062 " clip-rule="nonzero"/></clipPath><clipPath id="6a6b22c523"><path d="M 302 177 L 718 177 L 718 417 L 302 417 Z M 302 177 " clip-rule="nonzero"/></clipPath><clipPath id="8788d6e5d1"><path d="M 302.375 193.25 L 709.691406 177.195312 L 718.492188 400.480469 L 311.175781 416.53125 Z M 302.375 193.25 " clip-rule="nonzero"/></clipPath><clipPath id="61e1456c49"><path d="M 302.375 193.25 L 708.992188 177.222656 L 717.789062 400.507812 L 311.175781 416.53125 Z M 302.375 193.25 " clip-rule="nonzero"/></clipPath><clipPath id="086dd6f889"><path d="M 722 173 L 1130 173 L 1130 398 L 722 398 Z M 722 173 " clip-rule="nonzero"/></clipPath><clipPath id="dd1fcdf336"><path d="M 723.050781 173.238281 L 1130.683594 173.875 L 1130.335938 397.332031 L 722.703125 396.695312 Z M 723.050781 173.238281 " clip-rule="nonzero"/></clipPath><clipPath id="e324c568c4"><path d="M 723.050781 173.238281 L 1129.980469 173.875 L 1129.632812 397.332031 L 722.703125 396.695312 Z M 723.050781 173.238281 " clip-rule="nonzero"/></clipPath><clipPath id="69e4c1f0a4"><path d="M 413 576 L 1085 576 L 1085 720 L 413 720 Z M 413 576 " clip-rule="nonzero"/></clipPath><clipPath id="eedbb7a65e"><path d="M 413.972656 580.285156 L 1083.382812 576.453125 L 1084.179688 715.78125 L 414.769531 719.609375 Z M 413.972656 580.285156 " clip-rule="nonzero"/></clipPath><clipPath id="6f4966d3a1"><path d="M 413.972656 580.285156 L 1083.273438 576.457031 L 1084.070312 715.78125 L 414.769531 719.609375 Z M 413.972656 580.285156 " clip-rule="nonzero"/></clipPath><clipPath id="627e3b1229"><path d="M 341 520 L 518 520 L 518 719 L 341 719 Z M 341 520 " clip-rule="nonzero"/></clipPath><clipPath id="84fca7a265"><path d="M 334.25 666.199219 L 436.953125 508.371094 L 517.4375 560.742188 L 414.738281 718.574219 Z M 334.25 666.199219 " clip-rule="nonzero"/></clipPath><clipPath id="dc1bc53660"><path d="M 341.976562 654.324219 L 429.105469 520.429688 L 517.320312 560.925781 L 414.738281 718.574219 Z M 341.976562 654.324219 " clip-rule="nonzero"/></clipPath><clipPath id="bf078bc4d7"><path d="M 998 521 L 1161 521 L 1161 720 L 998 720 Z M 998 521 " clip-rule="nonzero"/></clipPath><clipPath id="601cf66565"><path d="M 1085.589844 508.324219 L 1166.371094 678.417969 L 1079.628906 719.617188 L 998.847656 549.519531 Z M 1085.589844 508.324219 " clip-rule="nonzero"/></clipPath><clipPath id="d252adf3dd"><path d="M 1091.667969 521.125 L 1160.199219 665.425781 L 1079.535156 719.421875 L 998.847656 549.519531 Z M 1091.667969 521.125 " clip-rule="nonzero"/></clipPath><clipPath id="215026eb1a"><path d="M 882 581 L 945 581 L 945 630 L 882 630 Z M 882 581 " clip-rule="nonzero"/></clipPath><clipPath id="7c1376be66"><path d="M 881.886719 582.476562 L 943.050781 581.046875 L 944.160156 628.492188 L 882.996094 629.925781 Z M 881.886719 582.476562 " clip-rule="nonzero"/></clipPath><clipPath id="5d7afe0da4"><path d="M 902.34375 584.851562 C 905.425781 583.054688 908.972656 581.84375 912.472656 581.761719 C 915.96875 581.679688 919.355469 582.570312 922.496094 584.21875 C 922.566406 584.269531 922.632812 584.265625 922.699219 584.320312 C 934.507812 590.929688 943.507812 608.902344 944.132812 628.496094 L 882.996094 629.925781 C 882.699219 610.21875 890.722656 591.847656 902.34375 584.851562 Z M 902.34375 584.851562 " clip-rule="nonzero"/></clipPath><clipPath id="5503c2b1b8"><path d="M 582 587 L 852 587 L 852 644 L 582 644 Z M 582 587 " clip-rule="nonzero"/></clipPath><clipPath id="2b1ead6ab7"><path d="M 582.875 587.953125 L 851.210938 589.320312 L 850.933594 643.625 L 582.601562 642.257812 Z M 582.875 587.953125 " clip-rule="nonzero"/></clipPath><clipPath id="76ac3215d9"><path d="M 582.875 587.953125 L 851.167969 589.320312 L 850.890625 643.625 L 582.601562 642.257812 Z M 582.875 587.953125 " clip-rule="nonzero"/></clipPath><clipPath id="6e09341290"><path d="M 562 582 L 603 582 L 603 674 L 562 674 Z M 562 582 " clip-rule="nonzero"/></clipPath><clipPath id="abc66742d2"><path d="M 584.234375 582.324219 L 602.089844 586.789062 L 580.316406 673.910156 L 562.460938 669.445312 Z M 584.234375 582.324219 " clip-rule="nonzero"/></clipPath><clipPath id="a97b50284f"><path d="M 584.234375 582.324219 L 602.089844 586.789062 L 580.324219 673.875 L 562.46875 669.414062 Z M 584.234375 582.324219 " clip-rule="nonzero"/></clipPath><clipPath id="0b9090d9e1"><path d="M 846 581 L 872 581 L 872 673 L 846 673 Z M 846 581 " clip-rule="nonzero"/></clipPath><clipPath id="f063c0aeb0"><path d="M 846.640625 582.953125 L 864.996094 581.585938 L 871.675781 671.136719 L 853.320312 672.507812 Z M 846.640625 582.953125 " clip-rule="nonzero"/></clipPath><clipPath id="d3f4a8f0cd"><path d="M 846.640625 582.953125 L 864.996094 581.585938 L 871.671875 671.105469 L 853.316406 672.472656 Z M 846.640625 582.953125 " clip-rule="nonzero"/></clipPath><clipPath id="1cf10db8c9"><path d="M 528 505 L 559 505 L 559 522 L 528 522 Z M 528 505 " clip-rule="nonzero"/></clipPath><clipPath id="a28f319e88"><path d="M 528.457031 505.617188 L 558.636719 504.910156 L 559.003906 520.644531 L 528.824219 521.351562 Z M 528.457031 505.617188 " clip-rule="nonzero"/></clipPath><clipPath id="35da515dec"><path d="M 543.539062 505.265625 C 535.207031 505.460938 528.539062 509.140625 528.640625 513.484375 C 528.742188 517.828125 535.574219 521.195312 543.90625 521 C 552.234375 520.804688 558.90625 517.125 558.804688 512.777344 C 558.703125 508.433594 551.867188 505.070312 543.539062 505.265625 Z M 543.539062 505.265625 " clip-rule="nonzero"/></clipPath><clipPath id="752deff8c1"><path d="M 525 477 L 559 477 L 559 494 L 525 494 Z M 525 477 " clip-rule="nonzero"/></clipPath><clipPath id="d205e5b2dd"><path d="M 525.449219 478.382812 L 558.023438 477.621094 L 558.390625 493.355469 L 525.816406 494.117188 Z M 525.449219 478.382812 " clip-rule="nonzero"/></clipPath><clipPath id="32315291ba"><path d="M 541.714844 478.003906 C 532.730469 478.210938 525.53125 481.90625 525.632812 486.25 C 525.734375 490.59375 533.097656 493.949219 542.082031 493.738281 C 551.066406 493.527344 558.265625 489.835938 558.164062 485.488281 C 558.0625 481.144531 550.699219 477.792969 541.714844 478.003906 Z M 541.714844 478.003906 " clip-rule="nonzero"/></clipPath><clipPath id="f36a9bafcd"><path d="M 525 484 L 547 484 L 547 514 L 525 514 Z M 525 484 " clip-rule="nonzero"/></clipPath><clipPath id="a76157ba05"><path d="M 525.632812 486.296875 L 543.765625 484.265625 L 546.8125 511.46875 L 528.679688 513.5 Z M 525.632812 486.296875 " clip-rule="nonzero"/></clipPath><clipPath id="850d26b56d"><path d="M 525.632812 486.296875 L 543.765625 484.265625 L 546.8125 511.453125 L 528.679688 513.484375 Z M 525.632812 486.296875 " clip-rule="nonzero"/></clipPath><clipPath id="9695c7cd32"><path d="M 539 486 L 559 486 L 559 513 L 539 513 Z M 539 486 " clip-rule="nonzero"/></clipPath><clipPath id="1346245a64"><path d="M 539.941406 486.667969 L 558.183594 486.242188 L 558.785156 512.035156 L 540.542969 512.464844 Z M 539.941406 486.667969 " clip-rule="nonzero"/></clipPath><clipPath id="acdad570d5"><path d="M 539.941406 486.667969 L 558.183594 486.242188 L 558.785156 512.027344 L 540.542969 512.453125 Z M 539.941406 486.667969 " clip-rule="nonzero"/></clipPath><clipPath id="d6738081ca"><path d="M 527 479 L 557 479 L 557 494 L 527 494 Z M 527 479 " clip-rule="nonzero"/></clipPath><clipPath id="2d0c7c2a5a"><path d="M 526.867188 479.691406 L 556.664062 478.996094 L 557 493.386719 L 527.203125 494.085938 Z M 526.867188 479.691406 " clip-rule="nonzero"/></clipPath><clipPath id="ce611fa73b"><path d="M 541.746094 479.34375 C 533.527344 479.535156 526.941406 482.914062 527.035156 486.890625 C 527.128906 490.863281 533.863281 493.929688 542.082031 493.738281 C 550.300781 493.546875 556.886719 490.167969 556.792969 486.191406 C 556.699219 482.21875 549.964844 479.152344 541.746094 479.34375 Z M 541.746094 479.34375 " clip-rule="nonzero"/></clipPath><clipPath id="70c13b9fae"><path d="M 532 456 L 551 456 L 551 487 L 532 487 Z M 532 456 " clip-rule="nonzero"/></clipPath><clipPath id="a9e2cac824"><path d="M 532.6875 457.183594 L 549.757812 456.78125 L 550.449219 486.449219 L 533.382812 486.851562 Z M 532.6875 457.183594 " clip-rule="nonzero"/></clipPath><clipPath id="8e119c2594"><path d="M 532.6875 457.183594 L 549.757812 456.78125 L 550.449219 486.421875 L 533.382812 486.824219 Z M 532.6875 457.183594 " clip-rule="nonzero"/></clipPath><clipPath id="b0523def3a"><path d="M 532 448 L 550 448 L 550 466 L 532 466 Z M 532 448 " clip-rule="nonzero"/></clipPath><clipPath id="6901566e64"><path d="M 532.488281 448.648438 L 549.558594 448.25 L 549.957031 465.316406 L 532.886719 465.714844 Z M 532.488281 448.648438 " clip-rule="nonzero"/></clipPath><clipPath id="a41046830a"><path d="M 541.023438 448.449219 C 536.308594 448.558594 532.578125 452.46875 532.6875 457.183594 C 532.800781 461.894531 536.710938 465.625 541.421875 465.515625 C 546.136719 465.40625 549.867188 461.496094 549.757812 456.78125 C 549.644531 452.070312 545.734375 448.335938 541.023438 448.449219 Z M 541.023438 448.449219 " clip-rule="nonzero"/></clipPath><clipPath id="915b99ec95"><path d="M 545 476 L 547 476 L 547 478 L 545 478 Z M 545 476 " clip-rule="nonzero"/></clipPath><clipPath id="5a6ddb2290"><path d="M 545.132812 476.097656 L 546.46875 476.066406 L 546.5 477.398438 L 545.164062 477.429688 Z M 545.132812 476.097656 " clip-rule="nonzero"/></clipPath><clipPath id="4b2948d6e1"><path d="M 545.800781 476.082031 C 545.433594 476.089844 545.140625 476.394531 545.148438 476.765625 C 545.160156 477.132812 545.464844 477.425781 545.832031 477.414062 C 546.203125 477.40625 546.492188 477.101562 546.484375 476.734375 C 546.476562 476.363281 546.171875 476.074219 545.800781 476.082031 Z M 545.800781 476.082031 " clip-rule="nonzero"/></clipPath><clipPath id="4f7b63d142"><path d="M 538 455 L 540 455 L 540 458 L 538 458 Z M 538 455 " clip-rule="nonzero"/></clipPath><clipPath id="ebb37f3c99"><path d="M 538.605469 455.707031 L 539.941406 455.675781 L 539.972656 457.011719 L 538.636719 457.042969 Z M 538.605469 455.707031 " clip-rule="nonzero"/></clipPath><clipPath id="2a9eabb923"><path d="M 539.273438 455.691406 C 538.90625 455.699219 538.613281 456.007812 538.621094 456.375 C 538.632812 456.742188 538.9375 457.035156 539.304688 457.027344 C 539.675781 457.019531 539.964844 456.710938 539.957031 456.34375 C 539.949219 455.976562 539.644531 455.683594 539.273438 455.691406 Z M 539.273438 455.691406 " clip-rule="nonzero"/></clipPath><clipPath id="e424cebef7"><path d="M 538 479 L 540 479 L 540 482 L 538 482 Z M 538 479 " clip-rule="nonzero"/></clipPath><clipPath id="0f067b55e8"><path d="M 538.328125 479.726562 L 539.660156 479.695312 L 539.691406 481.03125 L 538.359375 481.0625 Z M 538.328125 479.726562 " clip-rule="nonzero"/></clipPath><clipPath id="49a393a9d5"><path d="M 538.996094 479.710938 C 538.625 479.722656 538.335938 480.027344 538.34375 480.394531 C 538.351562 480.765625 538.65625 481.054688 539.027344 481.046875 C 539.394531 481.039062 539.6875 480.734375 539.675781 480.363281 C 539.667969 479.996094 539.363281 479.703125 538.996094 479.710938 Z M 538.996094 479.710938 " clip-rule="nonzero"/></clipPath><clipPath id="0025db6a18"><path d="M 537 467 L 539 467 L 539 470 L 537 470 Z M 537 467 " clip-rule="nonzero"/></clipPath><clipPath id="29c446096b"><path d="M 537.382812 467.941406 L 538.71875 467.910156 L 538.75 469.246094 L 537.414062 469.277344 Z M 537.382812 467.941406 " clip-rule="nonzero"/></clipPath><clipPath id="6a0f781a33"><path d="M 538.050781 467.925781 C 537.683594 467.933594 537.390625 468.242188 537.398438 468.609375 C 537.40625 468.976562 537.714844 469.269531 538.082031 469.261719 C 538.449219 469.253906 538.742188 468.945312 538.734375 468.578125 C 538.726562 468.210938 538.417969 467.917969 538.050781 467.925781 Z M 538.050781 467.925781 " clip-rule="nonzero"/></clipPath><clipPath id="de453393af"><path d="M 544 461 L 546 461 L 546 464 L 544 464 Z M 544 461 " clip-rule="nonzero"/></clipPath><clipPath id="dc81e1026a"><path d="M 544.132812 461.875 L 545.46875 461.84375 L 545.5 463.175781 L 544.164062 463.207031 Z M 544.132812 461.875 " clip-rule="nonzero"/></clipPath><clipPath id="1d4f8bec5b"><path d="M 544.800781 461.859375 C 544.433594 461.867188 544.140625 462.171875 544.148438 462.539062 C 544.160156 462.910156 544.464844 463.203125 544.832031 463.191406 C 545.203125 463.183594 545.492188 462.878906 545.484375 462.507812 C 545.476562 462.140625 545.171875 461.847656 544.800781 461.859375 Z M 544.800781 461.859375 " clip-rule="nonzero"/></clipPath><clipPath id="4d3eef792e"><path d="M 924 510 L 1022 510 L 1022 525 L 924 525 Z M 924 510 " clip-rule="nonzero"/></clipPath><clipPath id="96f3e850d5"><path d="M 924.828125 512.914062 L 1020.78125 510.671875 L 1021.0625 522.558594 L 925.109375 524.804688 Z M 924.828125 512.914062 " clip-rule="nonzero"/></clipPath><clipPath id="232974149e"><path d="M 924.828125 512.914062 L 1020.753906 510.671875 L 1021.03125 522.558594 L 925.109375 524.804688 Z M 924.828125 512.914062 " clip-rule="nonzero"/></clipPath><clipPath id="6141592fa8"><path d="M 924 513 L 1022 513 L 1022 525 L 924 525 Z M 924 513 " clip-rule="nonzero"/></clipPath><clipPath id="a6502da4ef"><path d="M 924.886719 515.359375 L 1020.828125 513.113281 L 1021.046875 522.558594 L 925.109375 524.804688 Z M 924.886719 515.359375 " clip-rule="nonzero"/></clipPath><clipPath id="3d5820eadf"><path d="M 924.886719 515.359375 L 1020.8125 513.113281 L 1021.03125 522.558594 L 925.109375 524.804688 Z M 924.886719 515.359375 " clip-rule="nonzero"/></clipPath><clipPath id="b75ca8b029"><path d="M 919 498 L 1016 498 L 1016 513 L 919 513 Z M 919 498 " clip-rule="nonzero"/></clipPath><clipPath id="6705f58482"><path d="M 919.542969 500.910156 L 1015.496094 498.664062 L 1015.777344 510.554688 L 919.824219 512.800781 Z M 919.542969 500.910156 " clip-rule="nonzero"/></clipPath><clipPath id="9dce31e270"><path d="M 919.542969 500.910156 L 1015.46875 498.664062 L 1015.746094 510.554688 L 919.824219 512.800781 Z M 919.542969 500.910156 " clip-rule="nonzero"/></clipPath><clipPath id="f9a990c36e"><path d="M 919 502 L 1016 502 L 1016 515 L 919 515 Z M 919 502 " clip-rule="nonzero"/></clipPath><clipPath id="c002e1ca8c"><path d="M 919.628906 504.574219 L 1015.570312 502.332031 L 1015.792969 511.777344 L 919.851562 514.023438 Z M 919.628906 504.574219 " clip-rule="nonzero"/></clipPath><clipPath id="e445572919"><path d="M 919.628906 504.574219 L 1015.554688 502.332031 L 1015.777344 511.777344 L 919.851562 514.023438 Z M 919.628906 504.574219 " clip-rule="nonzero"/></clipPath><clipPath id="cb83068ed6"><path d="M 924 486 L 1021 486 L 1021 501 L 924 501 Z M 924 486 " clip-rule="nonzero"/></clipPath><clipPath id="e37e935b39"><path d="M 924.269531 488.902344 L 1020.222656 486.660156 L 1020.5 498.546875 L 924.546875 500.792969 Z M 924.269531 488.902344 " clip-rule="nonzero"/></clipPath><clipPath id="ff454a2ee5"><path d="M 924.269531 488.902344 L 1020.191406 486.660156 L 1020.46875 498.546875 L 924.546875 500.792969 Z M 924.269531 488.902344 " clip-rule="nonzero"/></clipPath><clipPath id="49c09b9ee3"><path d="M 924 490 L 1021 490 L 1021 503 L 924 503 Z M 924 490 " clip-rule="nonzero"/></clipPath><clipPath id="35f81c7a0d"><path d="M 924.367188 493.109375 L 1020.304688 490.863281 L 1020.527344 500.308594 L 924.585938 502.554688 Z M 924.367188 493.109375 " clip-rule="nonzero"/></clipPath><clipPath id="f2f7cd0b2b"><path d="M 924.367188 493.109375 L 1020.289062 490.863281 L 1020.511719 500.3125 L 924.585938 502.554688 Z M 924.367188 493.109375 " clip-rule="nonzero"/></clipPath><clipPath id="4ba617b841"><path d="M 923 471 L 1022 471 L 1022 491 L 923 491 Z M 923 471 " clip-rule="nonzero"/></clipPath><clipPath id="71b3bb10cb"><path d="M 923.910156 473.628906 L 1021.324219 471.351562 L 1021.710938 487.976562 L 924.300781 490.253906 Z M 923.910156 473.628906 " clip-rule="nonzero"/></clipPath><clipPath id="69126b6a8b"><path d="M 923.910156 473.628906 L 1021.273438 471.351562 L 1021.660156 487.976562 L 924.300781 490.253906 Z M 923.910156 473.628906 " clip-rule="nonzero"/></clipPath><clipPath id="0ea68b200e"><path d="M 879 413 L 934 413 L 934 495 L 879 495 Z M 879 413 " clip-rule="nonzero"/></clipPath><clipPath id="7d6b6c72b1"><path d="M 888.984375 413.226562 L 933.578125 418.707031 L 924.289062 494.3125 L 879.691406 488.832031 Z M 888.984375 413.226562 " clip-rule="nonzero"/></clipPath><clipPath id="4a3709e5eb"><path d="M 888.984375 413.226562 L 933.578125 418.707031 L 924.289062 494.292969 L 879.695312 488.8125 Z M 888.984375 413.226562 " clip-rule="nonzero"/></clipPath><clipPath id="51a1e346a4"><path d="M 1013 425 L 1066 425 L 1066 498 L 1013 498 Z M 1013 425 " clip-rule="nonzero"/></clipPath><clipPath id="039cda75b7"><path d="M 1013.496094 430.023438 L 1058.148438 425.03125 L 1065.714844 492.707031 L 1021.0625 497.703125 Z M 1013.496094 430.023438 " clip-rule="nonzero"/></clipPath><clipPath id="db80626dbb"><path d="M 1013.496094 430.023438 L 1058.148438 425.03125 L 1065.703125 492.589844 L 1021.050781 497.585938 Z M 1013.496094 430.023438 " clip-rule="nonzero"/></clipPath><clipPath id="88d26ea992"><path d="M 323 193 L 701 193 L 701 402 L 323 402 Z M 323 193 " clip-rule="nonzero"/></clipPath><clipPath id="2cc7df2b99"><path d="M 323.722656 208.007812 L 692.5625 193.472656 L 700.171875 386.5625 L 331.335938 401.101562 Z M 323.722656 208.007812 " clip-rule="nonzero"/></clipPath><clipPath id="b28f34d759"><path d="M 323.722656 208.007812 L 692.503906 193.472656 L 700.113281 386.566406 L 331.335938 401.101562 Z M 323.722656 208.007812 " clip-rule="nonzero"/></clipPath><clipPath id="096933a834"><path d="M 738 188 L 1118 188 L 1118 386 L 738 386 Z M 738 188 " clip-rule="nonzero"/></clipPath><clipPath id="292934bc78"><path d="M 738.476562 188.359375 L 1117.539062 188.953125 L 1117.230469 385.390625 L 738.167969 384.796875 Z M 738.476562 188.359375 " clip-rule="nonzero"/></clipPath><clipPath id="ef9d072fa7"><path d="M 738.476562 188.359375 L 1117.199219 188.953125 L 1116.894531 385.390625 L 738.167969 384.796875 Z M 738.476562 188.359375 " clip-rule="nonzero"/></clipPath></defs><rect x="-144" width="1728" fill="#ffffff" y="-80.999999" height="971.999992" fill-opacity="1"/><rect x="-144" width="1728" fill="#044941" y="-80.999999" height="971.999992" fill-opacity="1"/><g clip-path="url(#5d9c5fc492)"><g clip-path="url(#9d95a719f4)"><g clip-path="url(#e68412c8c2)"><path fill="#545454" d="M 281.101562 725.269531 L 305.800781 721.125 L 325.011719 835.5625 L 300.308594 839.707031 Z M 281.101562 725.269531 " fill-opacity="1" fill-rule="nonzero"/></g></g></g><g clip-path="url(#529c829ccb)"><g clip-path="url(#ff3f0d2517)"><g clip-path="url(#cbab55ebcd)"><path fill="#737373" d="M 260.449219 725.753906 L 285.152344 721.609375 L 304.359375 836.046875 L 279.660156 840.191406 Z M 260.449219 725.753906 " fill-opacity="1" fill-rule="nonzero"/></g></g></g><g clip-path="url(#5274899c85)"><g clip-path="url(#e56763324c)"><g clip-path="url(#c10f8c46a4)"><path fill="#545454" d="M 1176.367188 718.828125 L 1201.191406 722.164062 L 1185.738281 837.167969 L 1160.914062 833.832031 Z M 1176.367188 718.828125 " fill-opacity="1" fill-rule="nonzero"/></g></g></g><g clip-path="url(#112fedc796)"><g clip-path="url(#bc7c57f0bb)"><g clip-path="url(#c2a915f538)"><path fill="#737373" d="M 1197.105469 718.339844 L 1221.964844 721.386719 L 1207.859375 836.5625 L 1183 833.519531 Z M 1197.105469 718.339844 " fill-opacity="1" fill-rule="nonzero"/></g></g></g><g clip-path="url(#f7d8a3a386)"><g clip-path="url(#fcf81eb5e4)"><g clip-path="url(#1e21806d32)"><path fill="#e4d1b2" d="M 130.152344 500.058594 L 1361 494.460938 L 1362.019531 718.730469 L 131.171875 724.328125 Z M 130.152344 500.058594 " fill-opacity="1" fill-rule="nonzero"/></g></g></g><g clip-path="url(#e177dddb9a)"><g clip-path="url(#78ec99f632)"><g clip-path="url(#9b3ae44cc8)"><path fill="#cbb899" d="M 131.550781 720.878906 L 1360.898438 717.511719 L 1360.960938 739.847656 L 131.613281 743.214844 Z M 131.550781 720.878906 " fill-opacity="1" fill-rule="nonzero"/></g></g></g><g clip-path="url(#7af079e245)"><g clip-path="url(#d57ee924a8)"><g clip-path="url(#da9553cbc8)"><path fill="#044941" d="M 83.085938 307.28125 L 295.683594 424.980469 L 116.835938 748.023438 L -95.757812 630.324219 Z M 83.085938 307.28125 " fill-opacity="1" fill-rule="nonzero"/></g></g></g><g clip-path="url(#6163dd7a34)"><g clip-path="url(#73e6dff459)"><g clip-path="url(#c73718130f)"><path fill="#044941" d="M 1182.617188 423.082031 L 1390.925781 297.957031 L 1581.058594 614.484375 L 1372.753906 739.613281 Z M 1182.617188 423.082031 " fill-opacity="1" fill-rule="nonzero"/></g></g></g><g clip-path="url(#dcb5538e2c)"><g clip-path="url(#2e1c4ace6d)"><g clip-path="url(#b31252f576)"><g clip-path="url(#63cf4f44d7)"><path fill="url(#eba9348d23)" d="M 704.3125 501.433594 L 704.867188 525.148438 L 742.414062 524.269531 L 741.859375 500.554688 Z M 704.3125 501.433594 " fill-rule="nonzero"/></g></g></g></g><g clip-path="url(#f114db4c83)"><g clip-path="url(#c78bb0eb8b)"><g clip-path="url(#2657c9cf86)"><path fill="#000000" d="M 708.726562 267.164062 L 727.601562 266.722656 L 733.359375 512.785156 L 714.484375 513.226562 Z M 708.726562 267.164062 " fill-opacity="1" fill-rule="nonzero"/></g></g></g><g clip-path="url(#6a6b22c523)"><g clip-path="url(#8788d6e5d1)"><g clip-path="url(#61e1456c49)"><path fill="#373636" d="M 302.375 193.25 L 708.820312 177.230469 L 717.621094 400.511719 L 311.175781 416.53125 Z M 302.375 193.25 " fill-opacity="1" fill-rule="nonzero"/></g></g></g><g clip-path="url(#086dd6f889)"><g clip-path="url(#dd1fcdf336)"><g clip-path="url(#e324c568c4)"><path fill="#373636" d="M 723.050781 173.238281 L 1129.8125 173.875 L 1129.460938 397.332031 L 722.703125 396.695312 Z M 723.050781 173.238281 " fill-opacity="1" fill-rule="nonzero"/></g></g></g><g clip-path="url(#69e4c1f0a4)"><g clip-path="url(#eedbb7a65e)"><g clip-path="url(#6f4966d3a1)"><path fill="#6d4930" d="M 413.972656 580.285156 L 1083.382812 576.453125 L 1084.179688 715.78125 L 414.769531 719.609375 Z M 413.972656 580.285156 " fill-opacity="1" fill-rule="nonzero"/></g></g></g><g clip-path="url(#627e3b1229)"><g clip-path="url(#84fca7a265)"><g clip-path="url(#dc1bc53660)"><path fill="#e4d1b2" d="M 334.25 666.199219 L 436.746094 508.683594 L 517.234375 561.058594 L 414.738281 718.574219 Z M 334.25 666.199219 " fill-opacity="1" fill-rule="nonzero"/></g></g></g><g clip-path="url(#bf078bc4d7)"><g clip-path="url(#601cf66565)"><g clip-path="url(#d252adf3dd)"><path fill="#e4d1b2" d="M 1085.589844 508.324219 L 1166.210938 678.082031 L 1079.46875 719.277344 L 998.847656 549.519531 Z M 1085.589844 508.324219 " fill-opacity="1" fill-rule="nonzero"/></g></g></g><g clip-path="url(#215026eb1a)"><g clip-path="url(#7c1376be66)"><g clip-path="url(#5d7afe0da4)"><path fill="#1e1c1c" d="M 881.886719 582.476562 L 943.050781 581.046875 L 944.160156 628.492188 L 882.996094 629.925781 Z M 881.886719 582.476562 " fill-opacity="1" fill-rule="nonzero"/></g></g></g><g clip-path="url(#5503c2b1b8)"><g clip-path="url(#2b1ead6ab7)"><g clip-path="url(#76ac3215d9)"><path fill="#373636" d="M 582.875 587.953125 L 851.210938 589.320312 L 850.933594 643.625 L 582.601562 642.257812 Z M 582.875 587.953125 " fill-opacity="1" fill-rule="nonzero"/></g></g></g><g clip-path="url(#6e09341290)"><g clip-path="url(#abc66742d2)"><g clip-path="url(#a97b50284f)"><path fill="#6d4930" d="M 584.234375 582.324219 L 602.089844 586.789062 L 580.316406 673.910156 L 562.460938 669.445312 Z M 584.234375 582.324219 " fill-opacity="1" fill-rule="nonzero"/></g></g></g><g clip-path="url(#0b9090d9e1)"><g clip-path="url(#f063c0aeb0)"><g clip-path="url(#d3f4a8f0cd)"><path fill="#6d4930" d="M 846.640625 582.953125 L 864.996094 581.585938 L 871.675781 671.136719 L 853.320312 672.507812 Z M 846.640625 582.953125 " fill-opacity="1" fill-rule="nonzero"/></g></g></g><g clip-path="url(#1cf10db8c9)"><g clip-path="url(#a28f319e88)"><g clip-path="url(#35da515dec)"><path fill="#7a6183" d="M 528.457031 505.617188 L 558.636719 504.910156 L 559.003906 520.644531 L 528.824219 521.351562 Z M 528.457031 505.617188 " fill-opacity="1" fill-rule="nonzero"/></g></g></g><g clip-path="url(#752deff8c1)"><g clip-path="url(#d205e5b2dd)"><g clip-path="url(#32315291ba)"><path fill="#7a6183" d="M 525.449219 478.382812 L 557.960938 477.621094 L 558.332031 493.355469 L 525.816406 494.117188 Z M 525.449219 478.382812 " fill-opacity="1" fill-rule="nonzero"/></g></g></g><g clip-path="url(#f36a9bafcd)"><g clip-path="url(#a76157ba05)"><g clip-path="url(#850d26b56d)"><path fill="#7a6183" d="M 525.632812 486.296875 L 543.765625 484.265625 L 546.8125 511.46875 L 528.679688 513.5 Z M 525.632812 486.296875 " fill-opacity="1" fill-rule="nonzero"/></g></g></g><g clip-path="url(#9695c7cd32)"><g clip-path="url(#1346245a64)"><g clip-path="url(#acdad570d5)"><path fill="#7a6183" d="M 539.941406 486.667969 L 558.183594 486.242188 L 558.785156 512.035156 L 540.542969 512.464844 Z M 539.941406 486.667969 " fill-opacity="1" fill-rule="nonzero"/></g></g></g><g clip-path="url(#d6738081ca)"><g clip-path="url(#2d0c7c2a5a)"><g clip-path="url(#ce611fa73b)"><path fill="#6d4930" d="M 526.867188 479.691406 L 556.609375 478.996094 L 556.945312 493.390625 L 527.203125 494.085938 Z M 526.867188 479.691406 " fill-opacity="1" fill-rule="nonzero"/></g></g></g><g clip-path="url(#70c13b9fae)"><g clip-path="url(#a9e2cac824)"><g clip-path="url(#8e119c2594)"><path fill="#a4b07e" d="M 532.6875 457.183594 L 549.757812 456.78125 L 550.449219 486.449219 L 533.382812 486.851562 Z M 532.6875 457.183594 " fill-opacity="1" fill-rule="nonzero"/></g></g></g><g clip-path="url(#b0523def3a)"><g clip-path="url(#6901566e64)"><g clip-path="url(#a41046830a)"><path fill="#a4b07e" d="M 532.488281 448.648438 L 549.558594 448.25 L 549.957031 465.316406 L 532.886719 465.714844 Z M 532.488281 448.648438 " fill-opacity="1" fill-rule="nonzero"/></g></g></g><path stroke-linecap="butt" transform="matrix(0.489521, -0.568216, 0.568216, 0.489521, 544.596003, 451.849509)" fill="none" stroke-linejoin="miter" d="M -0.000523042 0.498331 L 13.431127 0.496822 " stroke="#e4d9c6" stroke-width="1" stroke-opacity="1" stroke-miterlimit="4"/><path stroke-linecap="butt" transform="matrix(0.745503, -0.0820118, 0.0820118, 0.745503, 545.554779, 457.747557)" fill="none" stroke-linejoin="miter" d="M 0.00236592 0.501314 L 13.431882 0.501068 " stroke="#e4d9c6" stroke-width="1" stroke-opacity="1" stroke-miterlimit="4"/><path stroke-linecap="butt" transform="matrix(0.749975, 0.00611568, -0.00611568, 0.749975, 546.200139, 464.063085)" fill="none" stroke-linejoin="miter" d="M -0.00236402 0.499256 L 13.430374 0.499098 " stroke="#e4d9c6" stroke-width="1" stroke-opacity="1" stroke-miterlimit="4"/><path stroke-linecap="butt" transform="matrix(0.745673, 0.080451, -0.080451, 0.745673, 547.081155, 470.609444)" fill="none" stroke-linejoin="miter" d="M -0.00273371 0.497865 L 7.074694 0.499107 " stroke="#e4d9c6" stroke-width="1" stroke-opacity="1" stroke-miterlimit="4"/><path stroke-linecap="butt" transform="matrix(0.749975, 0.00611568, -0.00611568, 0.749975, 546.535467, 477.889556)" fill="none" stroke-linejoin="miter" d="M -0.00153337 0.501455 L 13.431205 0.501296 " stroke="#e4d9c6" stroke-width="1" stroke-opacity="1" stroke-miterlimit="4"/><path stroke-linecap="butt" transform="matrix(0.731878, -0.163874, 0.163874, 0.731878, 526.858564, 479.341724)" fill="none" stroke-linejoin="miter" d="M 0.00136214 0.499442 L 13.429598 0.501247 " stroke="#e4d9c6" stroke-width="1" stroke-opacity="1" stroke-miterlimit="4"/><path stroke-linecap="butt" transform="matrix(0.749999, 0.00139891, -0.00139891, 0.749999, 526.571644, 472.184996)" fill="none" stroke-linejoin="miter" d="M -0.000845855 0.498132 L 13.431472 0.49912 " stroke="#e4d9c6" stroke-width="1" stroke-opacity="1" stroke-miterlimit="4"/><path stroke-linecap="butt" transform="matrix(0.717492, 0.218414, -0.218414, 0.717492, 527.565868, 462.573621)" fill="none" stroke-linejoin="miter" d="M 0.000949065 0.501421 L 10.992084 0.498382 " stroke="#e4d9c6" stroke-width="1" stroke-opacity="1" stroke-miterlimit="4"/><path stroke-linecap="butt" transform="matrix(0.579357, 0.476283, -0.476283, 0.579357, 528.526444, 451.375077)" fill="none" stroke-linejoin="miter" d="M 0.000195899 0.498642 L 13.432354 0.500253 " stroke="#e4d9c6" stroke-width="1" stroke-opacity="1" stroke-miterlimit="4"/><path stroke-linecap="butt" transform="matrix(0.628461, 0.409313, -0.409313, 0.628461, 532.692987, 448.335477)" fill="none" stroke-linejoin="miter" d="M -0.000980133 0.498617 L 9.336974 0.50192 " stroke="#e4d9c6" stroke-width="1" stroke-opacity="1" stroke-miterlimit="4"/><path stroke-linecap="butt" transform="matrix(0.0715593, 0.746578, -0.746578, 0.0715593, 540.862587, 441.268006)" fill="none" stroke-linejoin="miter" d="M 0.00106793 0.501464 L 13.432112 0.501703 " stroke="#e4d9c6" stroke-width="1" stroke-opacity="1" stroke-miterlimit="4"/><path stroke-linecap="butt" transform="matrix(-0.186742, -0.72638, 0.72638, -0.186742, 541.055019, 465.606357)" fill="none" stroke-linejoin="miter" d="M 0.00171539 0.500111 L 4.492525 0.498432 " stroke="#e4d9c6" stroke-width="1" stroke-opacity="1" stroke-miterlimit="4"/><path stroke-linecap="butt" transform="matrix(0.47629, -0.579351, 0.579351, 0.47629, 541.491075, 472.713404)" fill="none" stroke-linejoin="miter" d="M -0.00120008 0.501849 L 4.076742 0.500335 " stroke="#e4d9c6" stroke-width="1" stroke-opacity="1" stroke-miterlimit="4"/><path stroke-linecap="butt" transform="matrix(0.561509, -0.497199, 0.497199, 0.561509, 542.732451, 456.369861)" fill="none" stroke-linejoin="miter" d="M -0.00210832 0.501211 L 4.074912 0.500763 " stroke="#e4d9c6" stroke-width="1" stroke-opacity="1" stroke-miterlimit="4"/><path stroke-linecap="butt" transform="matrix(0.561509, -0.497199, 0.497199, 0.561509, 542.975475, 481.30322)" fill="none" stroke-linejoin="miter" d="M 0.000301715 0.496806 L 4.073869 0.500258 " stroke="#e4d9c6" stroke-width="1" stroke-opacity="1" stroke-miterlimit="4"/><g clip-path="url(#915b99ec95)"><g clip-path="url(#5a6ddb2290)"><g clip-path="url(#4b2948d6e1)"><path fill="#e4d9c6" d="M 545.132812 476.097656 L 546.46875 476.066406 L 546.5 477.398438 L 545.164062 477.429688 Z M 545.132812 476.097656 " fill-opacity="1" fill-rule="nonzero"/></g></g></g><g clip-path="url(#4f7b63d142)"><g clip-path="url(#ebb37f3c99)"><g clip-path="url(#2a9eabb923)"><path fill="#e4d9c6" d="M 538.605469 455.707031 L 539.941406 455.675781 L 539.972656 457.011719 L 538.636719 457.042969 Z M 538.605469 455.707031 " fill-opacity="1" fill-rule="nonzero"/></g></g></g><g clip-path="url(#e424cebef7)"><g clip-path="url(#0f067b55e8)"><g clip-path="url(#49a393a9d5)"><path fill="#e4d9c6" d="M 538.328125 479.726562 L 539.660156 479.695312 L 539.691406 481.03125 L 538.359375 481.0625 Z M 538.328125 479.726562 " fill-opacity="1" fill-rule="nonzero"/></g></g></g><g clip-path="url(#0025db6a18)"><g clip-path="url(#29c446096b)"><g clip-path="url(#6a0f781a33)"><path fill="#e4d9c6" d="M 537.382812 467.941406 L 538.71875 467.910156 L 538.75 469.246094 L 537.414062 469.277344 Z M 537.382812 467.941406 " fill-opacity="1" fill-rule="nonzero"/></g></g></g><g clip-path="url(#de453393af)"><g clip-path="url(#dc81e1026a)"><g clip-path="url(#1d4f8bec5b)"><path fill="#e4d9c6" d="M 544.132812 461.875 L 545.46875 461.84375 L 545.5 463.175781 L 544.164062 463.207031 Z M 544.132812 461.875 " fill-opacity="1" fill-rule="nonzero"/></g></g></g><g clip-path="url(#4d3eef792e)"><g clip-path="url(#96f3e850d5)"><g clip-path="url(#232974149e)"><path fill="#573f60" d="M 924.828125 512.914062 L 1020.734375 510.671875 L 1021.015625 522.5625 L 925.109375 524.804688 Z M 924.828125 512.914062 " fill-opacity="1" fill-rule="nonzero"/></g></g></g><g clip-path="url(#6141592fa8)"><g clip-path="url(#a6502da4ef)"><g clip-path="url(#3d5820eadf)"><path fill="#7a6183" d="M 924.886719 515.359375 L 1020.828125 513.113281 L 1021.046875 522.558594 L 925.109375 524.804688 Z M 924.886719 515.359375 " fill-opacity="1" fill-rule="nonzero"/></g></g></g><g clip-path="url(#b75ca8b029)"><g clip-path="url(#6705f58482)"><g clip-path="url(#9dce31e270)"><path fill="#573f60" d="M 919.542969 500.910156 L 1015.453125 498.667969 L 1015.730469 510.554688 L 919.824219 512.800781 Z M 919.542969 500.910156 " fill-opacity="1" fill-rule="nonzero"/></g></g></g><g clip-path="url(#f9a990c36e)"><g clip-path="url(#c002e1ca8c)"><g clip-path="url(#e445572919)"><path fill="#7a6183" d="M 919.628906 504.574219 L 1015.570312 502.332031 L 1015.792969 511.777344 L 919.851562 514.023438 Z M 919.628906 504.574219 " fill-opacity="1" fill-rule="nonzero"/></g></g></g><g clip-path="url(#cb83068ed6)"><g clip-path="url(#e37e935b39)"><g clip-path="url(#ff454a2ee5)"><path fill="#573f60" d="M 924.269531 488.902344 L 1020.175781 486.660156 L 1020.453125 498.550781 L 924.546875 500.792969 Z M 924.269531 488.902344 " fill-opacity="1" fill-rule="nonzero"/></g></g></g><g clip-path="url(#49c09b9ee3)"><g clip-path="url(#35f81c7a0d)"><g clip-path="url(#f2f7cd0b2b)"><path fill="#7a6183" d="M 924.367188 493.109375 L 1020.304688 490.863281 L 1020.527344 500.308594 L 924.585938 502.554688 Z M 924.367188 493.109375 " fill-opacity="1" fill-rule="nonzero"/></g></g></g><g clip-path="url(#4ba617b841)"><g clip-path="url(#71b3bb10cb)"><g clip-path="url(#69126b6a8b)"><path fill="#573f60" d="M 923.910156 473.628906 L 1021.257812 471.351562 L 1021.648438 487.976562 L 924.300781 490.253906 Z M 923.910156 473.628906 " fill-opacity="1" fill-rule="nonzero"/></g></g></g><g clip-path="url(#0ea68b200e)"><g clip-path="url(#7d6b6c72b1)"><g clip-path="url(#4a3709e5eb)"><path fill="#044941" d="M 888.984375 413.226562 L 933.578125 418.707031 L 924.289062 494.3125 L 879.691406 488.832031 Z M 888.984375 413.226562 " fill-opacity="1" fill-rule="nonzero"/></g></g></g><g clip-path="url(#51a1e346a4)"><g clip-path="url(#039cda75b7)"><g clip-path="url(#db80626dbb)"><path fill="#044941" d="M 1013.496094 430.023438 L 1058.148438 425.03125 L 1065.695312 492.535156 L 1021.042969 497.527344 Z M 1013.496094 430.023438 " fill-opacity="1" fill-rule="nonzero"/></g></g></g><g clip-path="url(#88d26ea992)"><g clip-path="url(#2cc7df2b99)"><g clip-path="url(#b28f34d759)"><path fill="#beced9" d="M 323.722656 208.007812 L 692.5625 193.472656 L 700.171875 386.5625 L 331.335938 401.101562 Z M 323.722656 208.007812 " fill-opacity="1" fill-rule="nonzero"/></g></g></g><g clip-path="url(#096933a834)"><g clip-path="url(#292934bc78)"><g clip-path="url(#ef9d072fa7)"><path fill="#beced9" d="M 738.476562 188.359375 L 1117.539062 188.953125 L 1117.230469 385.390625 L 738.167969 384.796875 Z M 738.476562 188.359375 " fill-opacity="1" fill-rule="nonzero"/></g></g></g></svg>